<svg xmlns="http://www.w3.org/2000/svg" viewBox="0 0 95.62 50">
  <defs>
    <style>
      .cls-1 {
        fill: #fff;
      }

      .cls-2 {
        fill: #202020;
      }
    </style>
  </defs>
  <g id="Layer_2" data-name="Layer 2">
    <g id="Layer_1-2" data-name="Layer 1">
      <g id="Layer_2-2" data-name="Layer 2">
        <g id="Layer_1-2-2" data-name="Layer 1-2">
          <g>
            <path class="cls-1" d="M89.29,13.54a11.32,11.32,0,0,0-6-1.67H57.91V10.09a2.71,2.71,0,0,0-.78-1.86l-.38-.38V3.49A2.6,2.6,0,0,0,54.18.87H42.53A2.59,2.59,0,0,0,40,3.45v4.4l-.49.47a2.69,2.69,0,0,0-.67,1.77v1.78H12.37A11.45,11.45,0,0,0,.94,23.31a11.24,11.24,0,0,0,1.58,5.82,11.42,11.42,0,0,0,9.85,5.66h8.88V45.91a3.3,3.3,0,0,0,3.28,3.29H71.18a3.29,3.29,0,0,0,3.27-3.31h0V34.76H83.3a11.06,11.06,0,0,0,5.92-1.66,11.44,11.44,0,0,0,0-19.56Z"/>
            <g>
              <path class="cls-2" d="M13.1,19.67a3.45,3.45,0,0,1,2.54,1.16l1-.94a4.85,4.85,0,0,0-3.49-1.51,5,5,0,1,0-.48,9.91,3.84,3.84,0,0,0,.48,0,5,5,0,0,0,3.49-1.51l-1-.94A3.52,3.52,0,0,1,13.1,27a3.66,3.66,0,0,1,0-7.31Z"/>
              <rect class="cls-2" x="19.47" y="18.54" width="1.41" height="9.58"/>
              <path class="cls-2" d="M27.85,18.6H24.54v9.57h3.31c3.09,0,5.29-2,5.29-4.8S30.94,18.6,27.85,18.6ZM28,26.82H26v-7h2a3.49,3.49,0,0,1,0,7Z"/>
              <path class="cls-2" d="M40.74,18.6H39.16l-4.11,9.51H36.6l.84-1.95h5l.84,1.95h1.55ZM38,25l2-4.54L41.9,24.9Z"/>
              <path class="cls-2" d="M51.11,18.6h-3.3v9.57h3.3c3.1,0,5.3-2,5.3-4.8S54.21,18.6,51.11,18.6Zm.09,8.22h-2v-7h2a3.49,3.49,0,1,1,0,7Z"/>
              <polygon class="cls-2" points="59.66 28.11 66.71 28.11 66.71 26.8 61.08 26.8 61.08 23.88 66.16 23.88 66.16 22.58 61.08 22.58 61.08 19.84 66.71 19.84 66.71 18.54 59.66 18.54 59.66 28.11"/>
              <polygon class="cls-2" points="71.17 18.54 69.75 18.54 69.75 28.11 76.24 28.11 76.24 26.8 71.17 26.8 71.17 18.54"/>
              <path class="cls-2" d="M84.11,18.6H82.58l-4.11,9.57H80l.83-2h5l.84,2h1.56Zm-2.69,6.3,2-4.55,2,4.55Z"/>
              <path class="cls-2" d="M89.74,12.78A12.29,12.29,0,0,0,83.33,11H58.78v-.89a3.64,3.64,0,0,0-1-2.47l-.14-.14v-4A3.49,3.49,0,0,0,54.13,0H42.51A3.49,3.49,0,0,0,39,3.49v4l-.24.24A3.49,3.49,0,0,0,37.86,10V11H12.29a12.32,12.32,0,0,0,0,24.64h8V45.84A4.16,4.16,0,0,0,24.47,50H71.18a4.16,4.16,0,0,0,4.16-4.16V35.63h8a11.85,11.85,0,0,0,6.37-1.79,12.3,12.3,0,0,0,0-21Zm-.5,20.31a11,11,0,0,1-5.91,1.66H74.45V45.87a3.29,3.29,0,0,1-3.29,3.29H24.53a3.28,3.28,0,0,1-3.28-3.29V34.76H12.37a11.47,11.47,0,0,1,0-22.94H38.79V10.09a2.69,2.69,0,0,1,.67-1.77L40,7.85V3.49A2.58,2.58,0,0,1,42.5.87H54.15a2.59,2.59,0,0,1,2.6,2.59V7.85l.38.38a2.71,2.71,0,0,1,.78,1.86v1.78H83.33A11.43,11.43,0,0,1,89.24,33.1Z"/>
              <path class="cls-2" d="M88.29,15.11a9.44,9.44,0,0,0-5-1.4H56V10.09a.7.7,0,0,0-.16-.5l-1-.95V3.49a.7.7,0,0,0-.7-.7H53a.7.7,0,0,0-.7.7V4h-.93V3.49a.7.7,0,0,0-.7-.7H49.55a.69.69,0,0,0-.69.7V4h-.93V3.49a.7.7,0,0,0-.7-.7H46.07a.7.7,0,0,0-.7.7V4h-.93V3.49a.7.7,0,0,0-.7-.7H42.58a.7.7,0,0,0-.7.7V8.64l-1,.95a.7.7,0,0,0-.2.5v3.67H12.37a9.57,9.57,0,0,0,0,19.12H23.13v13a1.4,1.4,0,0,0,1.4,1.39H71.18a1.4,1.4,0,0,0,1.4-1.39h0v-13H83.33a9.31,9.31,0,0,0,5-1.39,9.57,9.57,0,0,0,3.13-13.15,9.75,9.75,0,0,0-3.13-3.13ZM35.61,35.9H32.46v8.27H31V35.9H28V34.6h7.69Zm10,0H40v2.73H45.1V40H40v2.91h5.63v1.31h-7V34.6h7ZM53.41,43a3.48,3.48,0,0,0,2.53-1.16l1,.94a5,5,0,1,1-4-8.4,3.84,3.84,0,0,1,.48,0,4.87,4.87,0,0,1,3.48,1.51l-1,.94a3.48,3.48,0,0,0-2.53-1.16,3.66,3.66,0,0,0,0,7.31ZM67.8,44.17H66.39V40H61.16v4.22h-1.4V34.6h1.4v4h5.23v-4H67.8ZM87.56,30.3a8,8,0,0,1-4.23,1.16H12.43a8.14,8.14,0,0,1-7-4A8,8,0,0,1,4.29,23.3a8.26,8.26,0,0,1,8.14-8.17H41.17a.9.9,0,0,0,.9-.9V10.38l1-1a.66.66,0,0,0,.19-.46V5.32H53.49V8.93a.67.67,0,0,0,.2.48l1,1v3.87a.91.91,0,0,0,.91.91H83.33a7.91,7.91,0,0,1,4.23,1.16,8.13,8.13,0,0,1,0,13.94Z"/>
            </g>
          </g>
        </g>
      </g>
    </g>
  </g>
</svg>
