<svg xmlns="http://www.w3.org/2000/svg" viewBox="0 0 90.5 11">
  <defs>
    <style>
      .cls-1 {
        fill: #202020;
      }
    </style>
  </defs>
  <g id="Layer_2" data-name="Layer 2">
    <g id="Layer_1-2" data-name="Layer 1">
      <path class="cls-1" d="M90.5,11H90a.5.5,0,0,1-.5-.5V3a2,2,0,0,0-2-2h-15a2,2,0,0,0-2,2v7.5a.5.5,0,0,1-.5.5H50a.5.5,0,0,1-.5-.5V3a2,2,0,0,0-2-2h-15a2,2,0,0,0-2,2v7.5a.5.5,0,0,1-.5.5H10a.5.5,0,0,1-.5-.5V3a2,2,0,0,0-2-2H0V0H7.5a3,3,0,0,1,3,3v7h19V3a3,3,0,0,1,3-3h15a3,3,0,0,1,3,3v7h19V3a3,3,0,0,1,3-3h15a3,3,0,0,1,3,3Z"/>
    </g>
  </g>
</svg>
