<svg xmlns="http://www.w3.org/2000/svg" viewBox="0 0 50 42.95">
  <defs>
    <style>
      .cls-1 {
        fill: #fff;
      }

      .cls-2 {
        fill: #202020;
      }
    </style>
  </defs>
  <g id="Layer_2" data-name="Layer 2">
    <g id="Layer_1-2" data-name="Layer 1">
      <g>
        <path class="cls-1" d="M46,19.72l-.91-.92V8.3a6.22,6.22,0,0,0-6.22-6.21H11.06A6.19,6.19,0,0,0,4.87,8.3V18.8L3.7,19.94a6.34,6.34,0,0,0-1.61,4.24V40.86H47.91V24.18A6.5,6.5,0,0,0,46,19.72Z"/>
        <path class="cls-2" d="M43.37,24.18V36.32H42.2A2.17,2.17,0,0,1,40,34.15V24.87l-2.31-2.31a1.62,1.62,0,0,1-.48-1.17V12.76H12.73v8.63a1.6,1.6,0,0,1-.47,1.12L9.94,24.87v9.28A2.16,2.16,0,0,1,7.8,36.32H6.63V30.39h0V24.18A1.74,1.74,0,0,1,7.08,23L9.39,20.7V8.3a1.65,1.65,0,0,1,1.67-1.67h2.78A1.68,1.68,0,0,1,15.52,8.3V9.42h2.22V8.3a1.66,1.66,0,0,1,1.67-1.67H22.2A1.67,1.67,0,0,1,23.87,8.3V9.42H26.1V8.3a1.65,1.65,0,0,1,1.67-1.67h2.79A1.67,1.67,0,0,1,32.23,8.3V9.42h2.23V8.3a1.65,1.65,0,0,1,1.67-1.67h2.78A1.67,1.67,0,0,1,40.58,8.3V20.7L42.87,23A1.76,1.76,0,0,1,43.37,24.18Z"/>
        <path class="cls-2" d="M47.91,18.72a4.73,4.73,0,0,0-.36-.45l-.34-.33V8.3A8.3,8.3,0,0,0,38.91,0H11.06A8.27,8.27,0,0,0,2.79,8.3v9.64l-.59.56c0,.05-.08.08-.11.14A8.23,8.23,0,0,0,0,24.18V43H50V24.18A8.35,8.35,0,0,0,47.91,18.72Zm0,22.14H2.09V24.18A6.34,6.34,0,0,1,3.7,19.94L4.87,18.8V8.3a6.19,6.19,0,0,1,6.19-6.21H38.91A6.22,6.22,0,0,1,45.13,8.3V18.8l.91.92a6.5,6.5,0,0,1,1.87,4.46Z"/>
        <path class="cls-2" d="M31.09,30.86l-.24.26a6.2,6.2,0,0,1-4.52,2.05,6.54,6.54,0,0,1,0-13.08,6.17,6.17,0,0,1,4.52,2.06l.24.26,2.39-2.26-.24-.25a9.48,9.48,0,0,0-6.91-3,9.83,9.83,0,0,0-9.72,9.68,9.84,9.84,0,0,0,9.72,9.7,9.61,9.61,0,0,0,6.91-3l.25-.25Z"/>
      </g>
    </g>
  </g>
</svg>
