<svg xmlns="http://www.w3.org/2000/svg" viewBox="0 0 82.24 43.06"><defs><style>.cls-1{fill:#fff;}.cls-2{fill:#943f42;}</style></defs><g id="Layer_2" data-name="Layer 2"><g id="Layer_1-2" data-name="Layer 1"><path class="cls-1" d="M76.77,11.65a9.81,9.81,0,0,0-5.13-1.44H49.77V8.68a2.34,2.34,0,0,0-.67-1.6l-.33-.33V3A2.23,2.23,0,0,0,46.54.75h-10A2.22,2.22,0,0,0,34.32,3V6.75l-.42.41a2.27,2.27,0,0,0-.58,1.52v1.53H10.59A9.86,9.86,0,0,0,.75,20.06a9.7,9.7,0,0,0,1.36,5,9.83,9.83,0,0,0,8.48,4.87h7.64v9.57a2.83,2.83,0,0,0,2.82,2.83H61.19A2.83,2.83,0,0,0,64,39.48V29.91h7.62a9.51,9.51,0,0,0,5.09-1.43,9.84,9.84,0,0,0,0-16.83Z"/><path class="cls-2" d="M11.22,16.92a3,3,0,0,1,2.18,1l.86-.81a4.21,4.21,0,0,0-3-1.3,4.27,4.27,0,1,0,0,8.53,4.25,4.25,0,0,0,3-1.3l-.86-.81a3,3,0,0,1-2.18,1,3.15,3.15,0,0,1,0-6.29Z"/><rect class="cls-2" x="16.7" y="15.95" width="1.21" height="8.24"/><path class="cls-2" d="M23.91,16H21.06v8.24h2.85c2.66,0,4.55-1.72,4.55-4.13S26.57,16,23.91,16ZM24,23.08H22.27v-6H24a3,3,0,1,1,0,6Z"/><path class="cls-2" d="M35,16H33.64L30.1,24.19h1.34l.72-1.68h4.3l.72,1.68h1.34Zm-2.35,5.47,1.68-3.91L36,21.42Z"/><path class="cls-2" d="M43.92,16H41.08v8.24h2.84c2.67,0,4.56-1.72,4.56-4.13S46.59,16,43.92,16ZM44,23.08h-1.7v-6H44a3,3,0,1,1,0,6Z"/><polygon class="cls-2" points="51.28 24.19 57.34 24.19 57.34 23.06 52.5 23.06 52.5 20.55 56.87 20.55 56.87 19.43 52.5 19.43 52.5 17.07 57.34 17.07 57.34 15.95 51.28 15.95 51.28 24.19"/><polygon class="cls-2" points="61.18 15.95 59.96 15.95 59.96 24.19 65.54 24.19 65.54 23.06 61.18 23.06 61.18 15.95"/><path class="cls-2" d="M72.31,16H71l-3.54,8.24h1.34l.72-1.68h4.3l.72,1.68h1.34ZM70,21.42l1.68-3.91,1.68,3.91Z"/><path class="cls-2" d="M77.16,11a10.57,10.57,0,0,0-5.52-1.55H50.52V8.68a3.11,3.11,0,0,0-.88-2.12l-.12-.12V3a3,3,0,0,0-3-3h-10a3,3,0,0,0-3,3V6.44l-.21.2a3,3,0,0,0-.79,2v.78h-22a10.53,10.53,0,0,0-9.1,5.2,10.55,10.55,0,0,0,0,10.76,10.62,10.62,0,0,0,9.13,5.24h6.89v8.82a3.57,3.57,0,0,0,3.57,3.58H61.19a3.58,3.58,0,0,0,3.58-3.58V30.66h6.87a10.25,10.25,0,0,0,5.48-1.54,10.59,10.59,0,0,0,0-18.11Zm-.43,17.47a9.51,9.51,0,0,1-5.09,1.43H64v9.57a2.83,2.83,0,0,1-2.83,2.83H21.05a2.83,2.83,0,0,1-2.82-2.83V29.91H10.59A9.83,9.83,0,0,1,2.11,25a9.81,9.81,0,0,1,0-10,9.79,9.79,0,0,1,8.46-4.83H33.32V8.68a2.27,2.27,0,0,1,.58-1.52l.42-.41V3A2.22,2.22,0,0,1,36.54.75h10A2.23,2.23,0,0,1,48.77,3V6.75l.33.33a2.34,2.34,0,0,1,.67,1.6v1.53H71.64a9.84,9.84,0,0,1,5.09,18.27Z"/><path class="cls-2" d="M75.91,13a8.1,8.1,0,0,0-4.27-1.2H48.14V8.68A.64.64,0,0,0,48,8.25l-.82-.82V3a.6.6,0,0,0-.6-.6h-1a.6.6,0,0,0-.6.6v.4h-.8V3a.6.6,0,0,0-.6-.6h-1a.6.6,0,0,0-.6.6v.4h-.8V3a.6.6,0,0,0-.6-.6h-1a.6.6,0,0,0-.6.6v.4h-.8V3a.6.6,0,0,0-.6-.6h-1a.6.6,0,0,0-.6.6V7.43l-.83.82a.63.63,0,0,0-.17.43v3.16H10.59a8.23,8.23,0,0,0,0,16.45h9.26v11.2a1.2,1.2,0,0,0,1.2,1.2H61.19a1.2,1.2,0,0,0,1.2-1.2V28.29h9.25a8,8,0,0,0,4.26-1.2,8.22,8.22,0,0,0,0-14ZM30.58,30.89H27.87V38H26.65V30.89H24V29.77h6.62Zm8.64,0H34.38v2.35h4.37v1.13H34.38v2.51h4.84V38H33.16V29.77h6.06ZM45.9,37a3,3,0,0,0,2.18-1l.86.81a4.25,4.25,0,0,1-3,1.3,4.27,4.27,0,1,1,0-8.53,4.21,4.21,0,0,1,3,1.3l-.86.81a3,3,0,0,0-2.18-1,3.15,3.15,0,0,0,0,6.29Zm12.38,1H57.07V34.37h-4.5V38H51.36V29.77h1.21v3.47h4.5V29.77h1.21Zm17-11.93a6.89,6.89,0,0,1-3.64,1h-61a7,7,0,0,1-6-3.47,6.87,6.87,0,0,1-1-3.55,6.94,6.94,0,0,1,1-3.57,7,7,0,0,1,6-3.46H35.37a.78.78,0,0,0,.77-.78V8.93L37,8.08a.56.56,0,0,0,.17-.4V4.58h8.8v3.1a.59.59,0,0,0,.17.42l.83.83v3.33a.78.78,0,0,0,.78.78H71.64a6.89,6.89,0,0,1,3.64,1,7,7,0,0,1,0,12Z"/></g></g></svg>